<?xml version="1.0" encoding="utf-8"?>
<!-- Generator: Adobe Illustrator 27.5.0, SVG Export Plug-In . SVG Version: 6.00 Build 0)  -->
<svg version="1.1" id="Layer_1" xmlns="http://www.w3.org/2000/svg" xmlns:xlink="http://www.w3.org/1999/xlink" x="0px" y="0px"
	 viewBox="0 0 2599 1733" style="enable-background:new 0 0 2599 1733;" xml:space="preserve">
<g>
	<linearGradient id="SVGID_1_" gradientUnits="userSpaceOnUse" x1="1896.9779" y1="-158.4447" x2="694.1644" y2="1902.3756">
		<stop  offset="0" style="stop-color:#FFF2EB"/>
		<stop  offset="1" style="stop-color:#F8F8FF"/>
	</linearGradient>
	<rect style="fill:url(#SVGID_1_);" width="2598.076" height="1732.051"/>
	<g>
		
			<linearGradient id="SVGID_00000170274456168213798680000008293924231724744841_" gradientUnits="userSpaceOnUse" x1="363.8265" y1="353.987" x2="411.2267" y2="329.6793">
			<stop  offset="0" style="stop-color:#FF3535"/>
			<stop  offset="0.4345" style="stop-color:#E72020"/>
			<stop  offset="1" style="stop-color:#C20000"/>
		</linearGradient>
		<path style="fill:url(#SVGID_00000170274456168213798680000008293924231724744841_);" d="M422.584,341.903
			c-25.838,5.167-30.027,9.355-35.194,35.194c-5.167-25.838-9.355-30.027-35.194-35.194c25.839-5.167,30.027-9.355,35.194-35.194
			C392.557,332.548,396.745,336.737,422.584,341.903z"/>
		
			<linearGradient id="SVGID_00000031904678506113744120000002847244367825287571_" gradientUnits="userSpaceOnUse" x1="717.0795" y1="961.103" x2="750.1776" y2="944.1296">
			<stop  offset="0" style="stop-color:#FF3535"/>
			<stop  offset="0.4345" style="stop-color:#E72020"/>
			<stop  offset="1" style="stop-color:#C20000"/>
		</linearGradient>
		<path style="fill:url(#SVGID_00000031904678506113744120000002847244367825287571_);" d="M758.108,952.665
			c-18.042,3.608-20.967,6.532-24.575,24.575c-3.608-18.042-6.532-20.967-24.575-24.575c18.042-3.608,20.967-6.532,24.575-24.575
			C737.141,946.133,740.066,949.057,758.108,952.665z"/>
		
			<linearGradient id="SVGID_00000127737157700319571790000010344457300022421643_" gradientUnits="userSpaceOnUse" x1="968.1282" y1="851.6872" x2="1012.3933" y2="828.9872">
			<stop  offset="0" style="stop-color:#FF3535"/>
			<stop  offset="0.4345" style="stop-color:#E72020"/>
			<stop  offset="1" style="stop-color:#C20000"/>
		</linearGradient>
		<path style="fill:url(#SVGID_00000127737157700319571790000010344457300022421643_);" d="M1022.999,840.403
			c-24.13,4.825-28.041,8.737-32.866,32.866c-4.825-24.129-8.737-28.041-32.866-32.866c24.13-4.825,28.041-8.737,32.866-32.866
			C994.958,831.666,998.869,835.577,1022.999,840.403z"/>
		
			<linearGradient id="SVGID_00000133512108842337185830000001336579025427122327_" gradientUnits="userSpaceOnUse" x1="1123.0143" y1="280.5215" x2="1182.8018" y2="249.8613">
			<stop  offset="0" style="stop-color:#FF3535"/>
			<stop  offset="0.4345" style="stop-color:#E72020"/>
			<stop  offset="1" style="stop-color:#C20000"/>
		</linearGradient>
		<path style="fill:url(#SVGID_00000133512108842337185830000001336579025427122327_);" d="M1197.127,265.28
			c-32.591,6.517-37.874,11.8-44.391,44.391c-6.517-32.591-11.8-37.874-44.391-44.391c32.591-6.517,37.874-11.8,44.391-44.391
			C1159.253,253.48,1164.536,258.762,1197.127,265.28z"/>
		
			<linearGradient id="SVGID_00000111904031770944131010000005467708535119037083_" gradientUnits="userSpaceOnUse" x1="427.0899" y1="1104.9495" x2="489.7168" y2="1072.833">
			<stop  offset="0" style="stop-color:#FF3535"/>
			<stop  offset="0.4345" style="stop-color:#E72020"/>
			<stop  offset="1" style="stop-color:#C20000"/>
		</linearGradient>
		<path style="fill:url(#SVGID_00000111904031770944131010000005467708535119037083_);" d="M504.722,1088.984
			c-34.139,6.827-39.673,12.361-46.499,46.5c-6.827-34.139-12.361-39.673-46.499-46.5c34.138-6.827,39.672-12.36,46.499-46.499
			C465.049,1076.624,470.583,1082.157,504.722,1088.984z"/>
		
			<linearGradient id="SVGID_00000174598663932747903440000016890132415215838355_" gradientUnits="userSpaceOnUse" x1="1119.2759" y1="1394.8408" x2="1155.2186" y2="1376.4087">
			<stop  offset="0" style="stop-color:#FF3535"/>
			<stop  offset="0.4345" style="stop-color:#E72020"/>
			<stop  offset="1" style="stop-color:#C20000"/>
		</linearGradient>
		<path style="fill:url(#SVGID_00000174598663932747903440000016890132415215838355_);" d="M1163.83,1385.678
			c-19.593,3.918-22.769,7.094-26.687,26.687c-3.918-19.593-7.094-22.769-26.687-26.687c19.593-3.918,22.769-7.094,26.687-26.687
			C1141.062,1378.584,1144.238,1381.76,1163.83,1385.678z"/>
		
			<linearGradient id="SVGID_00000168085904752415215700000002136770282139153842_" gradientUnits="userSpaceOnUse" x1="143.5157" y1="688.6826" x2="193.1927" y2="663.2071">
			<stop  offset="0" style="stop-color:#FF3535"/>
			<stop  offset="0.4345" style="stop-color:#E72020"/>
			<stop  offset="1" style="stop-color:#C20000"/>
		</linearGradient>
		<path style="fill:url(#SVGID_00000168085904752415215700000002136770282139153842_);" d="M205.095,676.018
			c-27.08,5.415-31.469,9.805-36.884,36.884c-5.415-27.08-9.805-31.469-36.884-36.884c27.08-5.415,31.469-9.805,36.884-36.884
			C173.626,666.214,178.016,670.603,205.095,676.018z"/>
		
			<linearGradient id="SVGID_00000073682133066508002330000013910873327159167367_" gradientUnits="userSpaceOnUse" x1="696.6372" y1="290.369" x2="725.1543" y2="275.7448">
			<stop  offset="0" style="stop-color:#FF3535"/>
			<stop  offset="0.4345" style="stop-color:#E72020"/>
			<stop  offset="1" style="stop-color:#C20000"/>
		</linearGradient>
		<path style="fill:url(#SVGID_00000073682133066508002330000013910873327159167367_);" d="M731.987,283.099
			c-15.545,3.109-18.065,5.629-21.174,21.174c-3.109-15.545-5.629-18.065-21.173-21.174c15.544-3.108,18.064-5.628,21.173-21.173
			C713.922,277.471,716.442,279.991,731.987,283.099z"/>
		
			<linearGradient id="SVGID_00000089560036549752509370000016139857385727394969_" gradientUnits="userSpaceOnUse" x1="956.1068" y1="485.4597" x2="994.9818" y2="465.5238">
			<stop  offset="0" style="stop-color:#FF3535"/>
			<stop  offset="0.4345" style="stop-color:#E72020"/>
			<stop  offset="1" style="stop-color:#C20000"/>
		</linearGradient>
		<path style="fill:url(#SVGID_00000089560036549752509370000016139857385727394969_);" d="M1004.296,475.549
			c-21.191,4.237-24.626,7.673-28.864,28.865c-4.237-21.192-7.673-24.627-28.864-28.865c21.191-4.238,24.626-7.673,28.864-28.864
			C979.67,467.876,983.105,471.311,1004.296,475.549z"/>
		
			<linearGradient id="SVGID_00000079449070357653076990000002621409370864135299_" gradientUnits="userSpaceOnUse" x1="576.7661" y1="1539.0729" x2="624.5279" y2="1514.5796">
			<stop  offset="0" style="stop-color:#FF3535"/>
			<stop  offset="0.4345" style="stop-color:#E72020"/>
			<stop  offset="1" style="stop-color:#C20000"/>
		</linearGradient>
		<path style="fill:url(#SVGID_00000079449070357653076990000002621409370864135299_);" d="M635.972,1526.897
			c-26.036,5.206-30.256,9.427-35.463,35.462c-5.206-26.035-9.426-30.256-35.462-35.462c26.035-5.206,30.256-9.427,35.462-35.463
			C605.716,1517.47,609.936,1521.691,635.972,1526.897z"/>
		
			<linearGradient id="SVGID_00000160156416340510322140000013718347659147867835_" gradientUnits="userSpaceOnUse" x1="127.7501" y1="1408.1404" x2="163.4377" y2="1389.839">
			<stop  offset="0" style="stop-color:#FF3535"/>
			<stop  offset="0.4345" style="stop-color:#E72020"/>
			<stop  offset="1" style="stop-color:#C20000"/>
		</linearGradient>
		<path style="fill:url(#SVGID_00000160156416340510322140000013718347659147867835_);" d="M171.988,1399.042
			c-19.454,3.89-22.607,7.044-26.497,26.497c-3.89-19.454-7.044-22.608-26.497-26.497c19.454-3.89,22.607-7.044,26.497-26.497
			C149.381,1391.999,152.535,1395.152,171.988,1399.042z"/>
	</g>
	<g>
		<defs>
			<rect id="SVGID_00000109007842002852924440000009969114250401769134_" width="2598.076" height="1732.051"/>
		</defs>
		<clipPath id="SVGID_00000089547604744085352580000012412363225984484001_">
			<use xlink:href="#SVGID_00000109007842002852924440000009969114250401769134_"  style="overflow:visible;"/>
		</clipPath>
		<g style="clip-path:url(#SVGID_00000089547604744085352580000012412363225984484001_);">
			
				<linearGradient id="SVGID_00000173873628954035627830000016652998521803378621_" gradientUnits="userSpaceOnUse" x1="-147.0016" y1="756.6365" x2="350.1851" y2="536.57">
				<stop  offset="0" style="stop-color:#BE6C00"/>
				<stop  offset="0.25" style="stop-color:#F7EB89"/>
				<stop  offset="0.5" style="stop-color:#BE811A"/>
				<stop  offset="0.75" style="stop-color:#E9D16D"/>
				<stop  offset="1" style="stop-color:#BE811A"/>
			</linearGradient>
			
				<rect x="277.546" y="-68.078" style="fill:url(#SVGID_00000173873628954035627830000016652998521803378621_);" width="5.829" height="1271.019"/>
			
				<linearGradient id="SVGID_00000174577950567218429820000013911822580712388503_" gradientUnits="userSpaceOnUse" x1="107.6307" y1="1331.9164" x2="604.8188" y2="1111.8494">
				<stop  offset="0" style="stop-color:#BE6C00"/>
				<stop  offset="0.25" style="stop-color:#F7EB89"/>
				<stop  offset="0.5" style="stop-color:#BE811A"/>
				<stop  offset="0.75" style="stop-color:#E9D16D"/>
				<stop  offset="1" style="stop-color:#BE811A"/>
			</linearGradient>
			<path style="fill:url(#SVGID_00000174577950567218429820000013911822580712388503_);" d="M337.954,1173.705
				c36.458,0,57.332,26.632,59.109,52.939c2.03,30.085-19.878,57.781-36.532,75.996c-24.259,26.528-59.116,51.86-78.728,63.845
				c-19.773-11.708-54.973-36.551-79.602-62.746c-16.907-17.985-39.197-45.376-37.584-75.485
				c1.393-26.063,22.671-53.762,59.361-53.76c0.997,0,2.007,0.021,3.021,0.063c28.57,1.179,48.462,29.141,48.654,29.415l5.06,7.263
				l4.978-7.325c0.193-0.284,19.699-28.521,48.244-30.094C335.291,1173.742,336.631,1173.705,337.954,1173.705 M337.954,1167.619
				c-1.433,0-2.885,0.04-4.354,0.12c-32.034,1.765-52.948,32.759-52.948,32.759s-21.339-30.699-53.401-32.023
				c-1.099-0.045-2.192-0.067-3.273-0.067c-38.316-0.002-63.759,28.109-65.438,59.522c-1.71,31.918,20.957,60.544,39.227,79.978
				c24.839,26.419,62.248,53.223,84.085,65.645c21.663-12.725,58.701-40.046,83.171-66.805c18-19.685,40.265-48.619,38.112-80.513
				C401.036,1195.144,375.675,1167.619,337.954,1167.619L337.954,1167.619z"/>
		</g>
		<g style="clip-path:url(#SVGID_00000089547604744085352580000012412363225984484001_);">
			
				<linearGradient id="SVGID_00000183929766277137705390000015266928192800777119_" gradientUnits="userSpaceOnUse" x1="621.7289" y1="142.1685" x2="1118.9156" y2="-77.8979">
				<stop  offset="0" style="stop-color:#BE6C00"/>
				<stop  offset="0.25" style="stop-color:#F7EB89"/>
				<stop  offset="0.5" style="stop-color:#BE811A"/>
				<stop  offset="0.75" style="stop-color:#E9D16D"/>
				<stop  offset="1" style="stop-color:#BE811A"/>
			</linearGradient>
			
				<rect x="1046.277" y="-682.546" style="fill:url(#SVGID_00000183929766277137705390000015266928192800777119_);" width="5.829" height="1271.019"/>
			
				<linearGradient id="SVGID_00000085963512887107013580000004389250943282754741_" gradientUnits="userSpaceOnUse" x1="876.3615" y1="717.4482" x2="1373.549" y2="497.3814">
				<stop  offset="0" style="stop-color:#BE6C00"/>
				<stop  offset="0.25" style="stop-color:#F7EB89"/>
				<stop  offset="0.5" style="stop-color:#BE811A"/>
				<stop  offset="0.75" style="stop-color:#E9D16D"/>
				<stop  offset="1" style="stop-color:#BE811A"/>
			</linearGradient>
			<path style="fill:url(#SVGID_00000085963512887107013580000004389250943282754741_);" d="M1106.685,559.237
				c36.457,0,57.331,26.632,59.108,52.939c2.03,30.085-19.878,57.781-36.532,75.996c-24.26,26.528-59.116,51.86-78.728,63.845
				c-19.774-11.708-54.973-36.551-79.602-62.746c-16.907-17.984-39.197-45.375-37.584-75.485
				c1.392-26.063,22.671-53.762,59.361-53.76c0.997,0,2.008,0.02,3.022,0.063c28.57,1.179,48.462,29.141,48.654,29.415l5.06,7.263
				l4.978-7.325c0.194-0.285,19.7-28.521,48.244-30.094C1104.021,559.274,1105.361,559.237,1106.685,559.237 M1106.685,553.151
				c-1.434,0-2.885,0.04-4.354,0.12c-32.033,1.765-52.948,32.759-52.948,32.759s-21.339-30.699-53.401-32.023
				c-1.099-0.045-2.192-0.067-3.273-0.067c-38.316-0.002-63.759,28.109-65.438,59.522c-1.71,31.918,20.957,60.544,39.227,79.978
				c24.839,26.419,62.248,53.223,84.086,65.644c21.663-12.725,58.7-40.045,83.17-66.804c18-19.685,40.266-48.619,38.112-80.513
				C1169.766,580.676,1144.406,553.151,1106.685,553.151L1106.685,553.151z"/>
		</g>
		<g style="clip-path:url(#SVGID_00000089547604744085352580000012412363225984484001_);">
			<g>
				<g>
					<rect x="549.466" y="-1255.177" style="fill:#DF0000;" width="3.5" height="1925.852"/>
				</g>
				<g>
					<path style="fill:#FFE7E6;" d="M561.717,565.126c0,5.859-4.75,10.608-10.609,10.608s-10.608-4.749-10.608-10.608
						s4.749-10.609,10.608-10.609S561.717,559.267,561.717,565.126z"/>
					<path style="fill:#DF0000;" d="M551.107,577.486c-6.813,0-12.357-5.544-12.357-12.357c0-6.819,5.544-12.362,12.357-12.362
						c6.816,0,12.36,5.544,12.36,12.362C563.467,571.941,557.922,577.486,551.107,577.486z M551.107,556.266
						c-4.883,0-8.856,3.976-8.856,8.862c0,4.886,3.973,8.857,8.856,8.857c4.886,0,8.86-3.971,8.86-8.857
						C559.967,560.242,555.993,556.266,551.107,556.266z"/>
				</g>
				<g>
					<path style="fill:#FFE7E6;" d="M561.717,535.551c0,5.859-4.75,10.609-10.609,10.609s-10.608-4.75-10.608-10.609
						c0-5.858,4.749-10.608,10.608-10.608S561.717,529.692,561.717,535.551z"/>
					<path style="fill:#DF0000;" d="M551.107,547.908c-6.813,0-12.357-5.544-12.357-12.357c0-6.813,5.544-12.356,12.357-12.356
						c6.816,0,12.36,5.544,12.36,12.356C563.467,542.365,557.922,547.908,551.107,547.908z M551.107,526.695
						c-4.883,0-8.856,3.97-8.856,8.856c0,4.886,3.973,8.857,8.856,8.857c4.886,0,8.86-3.971,8.86-8.857
						C559.967,530.665,555.993,526.695,551.107,526.695z"/>
				</g>
				<g>
					<path style="fill:#FFE7E6;" d="M561.717,505.976c0,5.859-4.75,10.609-10.609,10.609s-10.608-4.75-10.608-10.609
						c0-5.859,4.749-10.608,10.608-10.608S561.717,500.117,561.717,505.976z"/>
					<path style="fill:#DF0000;" d="M551.107,518.337c-6.813,0-12.357-5.544-12.357-12.363c0-6.813,5.544-12.357,12.357-12.357
						c6.816,0,12.36,5.544,12.36,12.357C563.467,512.794,557.922,518.337,551.107,518.337z M551.107,497.118
						c-4.883,0-8.856,3.97-8.856,8.857c0,4.887,3.973,8.862,8.856,8.862c4.886,0,8.86-3.976,8.86-8.862
						C559.967,501.088,555.993,497.118,551.107,497.118z"/>
				</g>
			</g>
			<g>
				
					<radialGradient id="SVGID_00000183223436853897113110000003841740004145969046_" cx="-5016.8569" cy="-5626.6064" r="277.0765" gradientTransform="matrix(0.828 -0.0049 0.0049 0.828 4736.6499 5461.2876)" gradientUnits="userSpaceOnUse">
					<stop  offset="0.317" style="stop-color:#FFBABB"/>
					<stop  offset="0.5812" style="stop-color:#FFDBDB"/>
					<stop  offset="0.8441" style="stop-color:#FFF5F5"/>
					<stop  offset="1" style="stop-color:#FFFFFF"/>
				</radialGradient>
				<circle style="fill:url(#SVGID_00000183223436853897113110000003841740004145969046_);" cx="555.122" cy="827.04" r="229.423"/>
				
					<linearGradient id="SVGID_00000118367348914292151610000012223591555923096970_" gradientUnits="userSpaceOnUse" x1="685.5093" y1="173.1392" x2="898.0196" y2="173.1392" gradientTransform="matrix(0.9998 0.0174 -0.0174 0.9998 -369.6425 588.6811)">
					<stop  offset="0" style="stop-color:#FF3535"/>
					<stop  offset="0.4345" style="stop-color:#E72020"/>
					<stop  offset="1" style="stop-color:#C20000"/>
				</linearGradient>
				<path style="fill:url(#SVGID_00000118367348914292151610000012223591555923096970_);" d="M759.155,704.57
					c-3.253-54.933-49.201-103.685-117.473-100.492c-54.524,2.554-90.541,54.988-90.541,54.988s-35.872-52.528-90.4-55.23
					c-68.254-3.372-114.342,45.261-117.732,100.184c-3.357,54.277,34.803,103.296,65.613,136.615
					c41.885,45.295,105.152,91.421,142.13,112.86c37.033-21.345,100.426-67.305,142.433-112.485
					C724.085,807.772,762.371,758.861,759.155,704.57z"/>
				
					<linearGradient id="SVGID_00000013176928934011416380000002495741918174729144_" gradientUnits="userSpaceOnUse" x1="1091.4591" y1="173.1392" x2="848.2468" y2="173.1392" gradientTransform="matrix(0.9998 0.0174 -0.0174 0.9998 -369.6425 588.6811)">
					<stop  offset="0" style="stop-color:#FF3535"/>
					<stop  offset="0.4345" style="stop-color:#E72020"/>
					<stop  offset="1" style="stop-color:#C20000"/>
				</linearGradient>
				<path style="fill:url(#SVGID_00000013176928934011416380000002495741918174729144_);" d="M759.155,704.57
					c-3.253-54.933-49.201-103.685-117.473-100.492c-54.524,2.554-90.541,54.988-90.541,54.988l-0.388,294.429
					c37.033-21.345,100.426-67.305,142.433-112.485C724.085,807.772,762.371,758.861,759.155,704.57z"/>
			</g>
		</g>
		<g style="clip-path:url(#SVGID_00000089547604744085352580000012412363225984484001_);">
			<g>
				<g>
					<rect x="831.013" y="-827.515" style="fill:#DF0000;" width="3.5" height="1925.857"/>
				</g>
				<g>
					<path style="fill:#FFE7E6;" d="M843.264,992.793c0,5.859-4.75,10.608-10.609,10.608c-5.858,0-10.608-4.749-10.608-10.608
						s4.75-10.608,10.608-10.608C838.514,982.185,843.264,986.934,843.264,992.793z"/>
					<path style="fill:#DF0000;" d="M832.655,1005.154c-6.813,0-12.357-5.544-12.357-12.362c0-6.813,5.544-12.357,12.357-12.357
						c6.816,0,12.359,5.544,12.359,12.357C845.015,999.61,839.471,1005.154,832.655,1005.154z M832.655,983.934
						c-4.884,0-8.857,3.97-8.857,8.857c0,4.886,3.973,8.862,8.857,8.862c4.886,0,8.859-3.976,8.859-8.862
						C841.514,987.905,837.542,983.934,832.655,983.934z"/>
				</g>
				<g>
					<path style="fill:#FFE7E6;" d="M843.264,963.218c0,5.859-4.75,10.608-10.609,10.608c-5.858,0-10.608-4.749-10.608-10.608
						c0-5.859,4.75-10.609,10.608-10.609C838.514,952.609,843.264,957.359,843.264,963.218z"/>
					<path style="fill:#DF0000;" d="M832.655,975.577c-6.813,0-12.357-5.544-12.357-12.357c0-6.819,5.544-12.363,12.357-12.363
						c6.816,0,12.359,5.544,12.359,12.363C845.015,970.033,839.471,975.577,832.655,975.577z M832.655,954.357
						c-4.884,0-8.857,3.977-8.857,8.863s3.973,8.856,8.857,8.856c4.886,0,8.859-3.97,8.859-8.856S837.542,954.357,832.655,954.357z"
						/>
				</g>
				<g>
					<path style="fill:#FFE7E6;" d="M843.264,933.643c0,5.859-4.75,10.609-10.609,10.609c-5.858,0-10.608-4.75-10.608-10.609
						c0-5.859,4.75-10.608,10.608-10.608C838.514,923.035,843.264,927.784,843.264,933.643z"/>
					<path style="fill:#DF0000;" d="M832.655,946c-6.813,0-12.357-5.544-12.357-12.357c0-6.813,5.544-12.357,12.357-12.357
						c6.816,0,12.359,5.544,12.359,12.357C845.015,940.456,839.471,946,832.655,946z M832.655,924.786
						c-4.884,0-8.857,3.97-8.857,8.856c0,4.887,3.973,8.857,8.857,8.857c4.886,0,8.859-3.97,8.859-8.857
						C841.514,928.756,837.542,924.786,832.655,924.786z"/>
				</g>
			</g>
			<g>
				
					<radialGradient id="SVGID_00000048468626111885266130000012912399880512143768_" cx="-4679.8921" cy="-5108.106" r="277.0767" gradientTransform="matrix(0.828 -0.0049 0.0049 0.828 4736.6499 5461.2876)" gradientUnits="userSpaceOnUse">
					<stop  offset="0.317" style="stop-color:#FFBABB"/>
					<stop  offset="0.5812" style="stop-color:#FFDBDB"/>
					<stop  offset="0.8441" style="stop-color:#FFF5F5"/>
					<stop  offset="1" style="stop-color:#FFFFFF"/>
				</radialGradient>
				
					<circle style="fill:url(#SVGID_00000048468626111885266130000012912399880512143768_);" cx="836.669" cy="1254.707" r="229.424"/>
				
					<linearGradient id="SVGID_00000002382850477377212550000005599856208571152014_" gradientUnits="userSpaceOnUse" x1="974.4698" y1="595.8626" x2="1186.9801" y2="595.8626" gradientTransform="matrix(0.9998 0.0174 -0.0174 0.9998 -369.6425 588.6811)">
					<stop  offset="0" style="stop-color:#FF3535"/>
					<stop  offset="0.4345" style="stop-color:#E72020"/>
					<stop  offset="1" style="stop-color:#C20000"/>
				</linearGradient>
				<path style="fill:url(#SVGID_00000002382850477377212550000005599856208571152014_);" d="M1040.702,1132.237
					c-3.252-54.934-49.201-103.686-117.473-100.493c-54.524,2.554-90.541,54.988-90.541,54.988s-35.871-52.528-90.4-55.23
					c-68.254-3.372-114.342,45.261-117.732,100.184c-3.357,54.277,34.803,103.296,65.614,136.615
					c41.884,45.295,105.151,91.421,142.129,112.86c37.033-21.344,100.427-67.304,142.433-112.485
					C1005.633,1235.439,1043.918,1186.528,1040.702,1132.237z"/>
				
					<linearGradient id="SVGID_00000052798302439410864010000002030670519808914361_" gradientUnits="userSpaceOnUse" x1="1380.4196" y1="595.8626" x2="1137.2072" y2="595.8626" gradientTransform="matrix(0.9998 0.0174 -0.0174 0.9998 -369.6425 588.6811)">
					<stop  offset="0" style="stop-color:#FF3535"/>
					<stop  offset="0.4345" style="stop-color:#E72020"/>
					<stop  offset="1" style="stop-color:#C20000"/>
				</linearGradient>
				<path style="fill:url(#SVGID_00000052798302439410864010000002030670519808914361_);" d="M1040.702,1132.237
					c-3.252-54.934-49.201-103.686-117.473-100.493c-54.524,2.554-90.541,54.988-90.541,54.988l-0.388,294.429
					c37.033-21.344,100.427-67.304,142.433-112.485C1005.633,1235.439,1043.918,1186.528,1040.702,1132.237z"/>
			</g>
		</g>
	</g>
</g>
</svg>
